<svg xmlns="http://www.w3.org/2000/svg" xmlns:xlink="http://www.w3.org/1999/xlink" width="1000" zoomAndPan="magnify" viewBox="0 0 750 749.999995" height="1000" preserveAspectRatio="xMidYMid meet" version="1.0"><defs><clipPath id="d708c1eb22"><path d="M 267.042969 262 L 483 262 L 483 600.242188 L 267.042969 600.242188 Z M 267.042969 262 " clip-rule="nonzero"/></clipPath><clipPath id="b77fe66594"><path d="M 318.929688 170 L 381 170 L 381 223 L 318.929688 223 Z M 318.929688 170 " clip-rule="nonzero"/></clipPath><clipPath id="7858281de9"><path d="M 390 163 L 465.929688 163 L 465.929688 199 L 390 199 Z M 390 163 " clip-rule="nonzero"/></clipPath><clipPath id="e80c105034"><path d="M 370 184 L 409 184 L 409 288.847656 L 370 288.847656 Z M 370 184 " clip-rule="nonzero"/></clipPath></defs><g clip-path="url(#d708c1eb22)"><path fill="#ffffff" d="M 459.203125 525.347656 L 290.789062 525.347656 L 290.789062 306.582031 L 459.203125 306.582031 Z M 374.996094 583.699219 C 363.1875 583.699219 353.609375 574.125 353.609375 562.3125 C 353.609375 550.503906 363.1875 540.9375 374.996094 540.9375 C 386.804688 540.9375 396.382812 550.503906 396.382812 562.3125 C 396.382812 574.125 386.804688 583.699219 374.996094 583.699219 Z M 351.613281 288.222656 L 398.382812 288.222656 L 398.382812 297.28125 L 351.613281 297.28125 Z M 452.574219 262.027344 L 297.421875 262.027344 C 280.734375 262.027344 267.160156 275.601562 267.160156 292.292969 L 267.160156 569.796875 C 267.160156 586.484375 280.734375 600.058594 297.421875 600.058594 L 452.574219 600.058594 C 469.261719 600.058594 482.835938 586.484375 482.835938 569.796875 L 482.835938 292.292969 C 482.835938 275.601562 469.261719 262.027344 452.574219 262.027344 " fill-opacity="1" fill-rule="nonzero"/></g><g clip-path="url(#b77fe66594)"><path fill="#ffffff" d="M 380.234375 222.15625 C 379.945312 177.929688 318.929688 170.207031 318.929688 170.207031 C 318.929688 170.207031 323.898438 223.921875 380.234375 222.15625 Z M 380.234375 222.15625 " fill-opacity="1" fill-rule="nonzero"/></g><g clip-path="url(#7858281de9)"><path fill="#ffffff" d="M 390.453125 193.015625 C 406.050781 151.628906 465.960938 165.527344 465.960938 165.527344 C 465.960938 165.527344 442.683594 214.195312 390.453125 193.015625 Z M 390.453125 193.015625 " fill-opacity="1" fill-rule="nonzero"/></g><g clip-path="url(#e80c105034)"><path fill="#ffffff" d="M 407.21875 187.535156 C 403.1875 188.890625 399.566406 190.960938 396.359375 193.75 C 393.21875 196.542969 390.679688 199.800781 388.746094 203.53125 C 384.878906 210.96875 382.953125 219.40625 382.136719 227.949219 C 381.363281 236.589844 381.382812 245.226562 382.199219 253.859375 C 382.574219 258.1875 383.109375 262.507812 383.765625 266.800781 C 384.109375 268.945312 384.460938 271.085938 384.871094 273.207031 C 385.265625 275.300781 385.714844 277.507812 386.179688 279.410156 L 386.1875 279.445312 C 386.292969 279.890625 386.351562 280.339844 386.367188 280.796875 C 386.382812 281.253906 386.351562 281.707031 386.277344 282.15625 C 386.207031 282.609375 386.089844 283.046875 385.929688 283.476562 C 385.769531 283.902344 385.570312 284.3125 385.332031 284.699219 C 385.09375 285.089844 384.816406 285.449219 384.507812 285.785156 C 384.199219 286.121094 383.859375 286.421875 383.488281 286.691406 C 383.121094 286.957031 382.730469 287.1875 382.3125 287.378906 C 381.898438 287.574219 381.472656 287.722656 381.027344 287.828125 C 380.585938 287.9375 380.132812 288 379.679688 288.023438 C 379.222656 288.042969 378.769531 288.015625 378.316406 287.949219 C 377.867188 287.878906 377.425781 287.765625 376.996094 287.613281 C 376.566406 287.457031 376.15625 287.261719 375.765625 287.027344 C 375.375 286.789062 375.011719 286.519531 374.671875 286.210938 C 374.335938 285.90625 374.03125 285.570312 373.757812 285.203125 C 373.484375 284.835938 373.25 284.445312 373.054688 284.035156 C 372.859375 283.621094 372.707031 283.195312 372.59375 282.753906 C 372.539062 282.527344 372.496094 282.296875 372.464844 282.074219 C 372.113281 279.578125 371.890625 277.359375 371.679688 275.023438 C 371.464844 272.714844 371.3125 270.410156 371.175781 268.105469 C 370.921875 263.5 370.804688 258.890625 370.859375 254.277344 C 370.894531 244.984375 371.777344 235.777344 373.511719 226.648438 C 375.300781 217.535156 378.289062 208.40625 383.519531 200.382812 C 386.171875 196.316406 389.460938 192.855469 393.390625 190 C 397.308594 187.203125 401.617188 185.265625 406.308594 184.183594 C 406.523438 184.132812 406.742188 184.125 406.964844 184.160156 C 407.183594 184.191406 407.386719 184.265625 407.582031 184.378906 C 407.773438 184.488281 407.9375 184.632812 408.074219 184.808594 C 408.210938 184.984375 408.308594 185.179688 408.371094 185.390625 C 408.433594 185.605469 408.453125 185.824219 408.429688 186.042969 C 408.410156 186.265625 408.347656 186.472656 408.246094 186.671875 C 408.144531 186.871094 408.011719 187.042969 407.84375 187.1875 C 407.675781 187.332031 407.488281 187.441406 407.277344 187.515625 Z M 407.21875 187.535156 " fill-opacity="1" fill-rule="nonzero"/></g></svg>